<svg width="500" height="500" viewBox="0 0 500 500" fill="none" xmlns="http://www.w3.org/2000/svg">
<path d="M451.35 279.68C451.017 277.94 450.667 276.22 450.3 274.52C441.14 231.43 422.69 186.93 389.8 156.52C375.55 143.37 358.32 133.32 339.12 129.7C315.68 125.29 291.31 131.4 269.77 141.7C248.23 152 228.9 166.22 208.94 179.28C196.05 187.71 182.42 195.83 167.21 198.28C149 201.21 130.37 195.71 112 197.46C83.1999 200.2 57.8199 221.68 47.4399 248.69C37.0599 275.7 40.8199 307.05 54.4999 332.55C68.1799 358.05 90.9999 377.91 116.84 391C152.59 409.16 194.84 414.84 233.74 405C252.74 400.2 271.08 391.8 290.64 391.45C314.9 391.02 337.64 403.02 361.64 406.34C384.2 409.45 408.26 404.34 426.21 390.34C459.5 364.34 458.56 317.14 451.35 279.68Z" fill="#426C81"/>
<path opacity="0.7" d="M451.35 279.68C451.017 277.94 450.667 276.22 450.3 274.52C441.14 231.43 422.69 186.93 389.8 156.52C375.55 143.37 358.32 133.32 339.12 129.7C315.68 125.29 291.31 131.4 269.77 141.7C248.23 152 228.9 166.22 208.94 179.28C196.05 187.71 182.42 195.83 167.21 198.28C149 201.21 130.37 195.71 112 197.46C83.1999 200.2 57.8199 221.68 47.4399 248.69C37.0599 275.7 40.8199 307.05 54.4999 332.55C68.1799 358.05 90.9999 377.91 116.84 391C152.59 409.16 194.84 414.84 233.74 405C252.74 400.2 271.08 391.8 290.64 391.45C314.9 391.02 337.64 403.02 361.64 406.34C384.2 409.45 408.26 404.34 426.21 390.34C459.5 364.34 458.56 317.14 451.35 279.68Z" fill="white"/>
<path d="M381.21 174C377.96 172.22 376.48 173.7 375.3 172.22C374.12 170.74 378.55 166.9 369.68 163.06C369.68 163.06 369.09 154.78 356.97 154.49C344.85 154.2 348.1 162.76 344.85 164.83C341.6 166.9 340.71 163.65 337.46 165.72C334.21 167.79 335.69 171.93 333.03 172.52C330.37 173.11 326.82 169.86 323.57 171.93C320.32 174 320.32 175.77 318.84 175.77C317.36 175.77 314.4 174.59 312.63 175.77C310.86 176.95 308.79 178.43 308.79 178.43H383.58C383.58 178.43 384.46 175.72 381.21 174Z" fill="white"/>
<path opacity="0.5" d="M381.21 174C377.96 172.22 376.48 173.7 375.3 172.22C374.12 170.74 378.55 166.9 369.68 163.06C369.68 163.06 369.09 154.78 356.97 154.49C344.85 154.2 348.1 162.76 344.85 164.83C341.6 166.9 340.71 163.65 337.46 165.72C334.21 167.79 335.69 171.93 333.03 172.52C330.37 173.11 326.82 169.86 323.57 171.93C320.32 174 320.32 175.77 318.84 175.77C317.36 175.77 314.4 174.59 312.63 175.77C310.86 176.95 308.79 178.43 308.79 178.43H383.58C383.58 178.43 384.46 175.72 381.21 174Z" fill="white"/>
<path d="M254.55 370C251.29 368.22 249.82 369.7 248.63 368.22C247.44 366.74 251.88 362.9 243.02 359.06C243.02 359.06 242.43 350.78 230.31 350.49C218.19 350.2 221.44 358.76 218.19 360.83C214.94 362.9 214.05 359.65 210.8 361.72C207.55 363.79 209.02 367.93 206.36 368.52C203.7 369.11 200.15 365.86 196.9 367.93C193.65 370 193.65 371.77 192.17 371.77C190.69 371.77 187.74 370.59 185.96 371.77C184.18 372.95 182.12 374.43 182.12 374.43H256.91C256.91 374.43 257.8 371.72 254.55 370Z" fill="white"/>
<path opacity="0.5" d="M254.55 370C251.29 368.22 249.82 369.7 248.63 368.22C247.44 366.74 251.88 362.9 243.02 359.06C243.02 359.06 242.43 350.78 230.31 350.49C218.19 350.2 221.44 358.76 218.19 360.83C214.94 362.9 214.05 359.65 210.8 361.72C207.55 363.79 209.02 367.93 206.36 368.52C203.7 369.11 200.15 365.86 196.9 367.93C193.65 370 193.65 371.77 192.17 371.77C190.69 371.77 187.74 370.59 185.96 371.77C184.18 372.95 182.12 374.43 182.12 374.43H256.91C256.91 374.43 257.8 371.72 254.55 370Z" fill="white"/>
<path d="M194.12 337C189.03 334.23 186.72 336.54 184.87 334.23C183.02 331.92 189.95 325.9 176.08 319.89C176.08 319.89 175.16 306.94 156.19 306.48C137.22 306.02 142.32 319.43 137.19 322.67C132.06 325.91 130.72 320.82 125.63 324.05C120.54 327.28 122.85 333.77 118.69 334.69C114.53 335.61 108.98 330.53 103.89 333.77C98.8 337.01 98.8 339.77 96.49 339.77C94.18 339.77 89.55 337.92 86.78 339.77C84.01 341.62 80.78 343.93 80.78 343.93H197.78C197.78 343.93 199.2 339.81 194.12 337Z" fill="white"/>
<path opacity="0.5" d="M194.12 337C189.03 334.23 186.72 336.54 184.87 334.23C183.02 331.92 189.95 325.9 176.08 319.89C176.08 319.89 175.16 306.94 156.19 306.48C137.22 306.02 142.32 319.43 137.19 322.67C132.06 325.91 130.72 320.82 125.63 324.05C120.54 327.28 122.85 333.77 118.69 334.69C114.53 335.61 108.98 330.53 103.89 333.77C98.8 337.01 98.8 339.77 96.49 339.77C94.18 339.77 89.55 337.92 86.78 339.77C84.01 341.62 80.78 343.93 80.78 343.93H197.78C197.78 343.93 199.2 339.81 194.12 337Z" fill="white"/>
<path d="M247.52 71.5701C212.61 71.5701 184.22 97.0401 183.23 128.79L155.72 143.86L141.26 130.12L120.38 161.82L105.84 161.2L113.3 190.13L113.95 166.32L124.24 168.25L141.24 150.36L158.59 164.1L185.78 147.1C193.62 171.54 218.27 189.4 247.5 189.4C283.03 189.4 311.84 163.02 311.84 130.48C311.84 97.9401 283.05 71.5701 247.52 71.5701Z" fill="#263238" stroke="#263238" stroke-linecap="round" stroke-linejoin="round"/>
<path d="M304.51 92.1802H188.45C185.23 92.1802 182.62 94.7904 182.62 98.0102V164.05C182.62 167.27 185.23 169.88 188.45 169.88H304.51C307.73 169.88 310.34 167.27 310.34 164.05V98.0102C310.34 94.7904 307.73 92.1802 304.51 92.1802Z" fill="#426C81" stroke="#263238" stroke-width="2" stroke-linecap="round" stroke-linejoin="round"/>
<path d="M251.58 129.09L310.34 99.3602V98.0002C310.34 96.454 309.726 94.9711 308.633 93.8777C307.539 92.7844 306.056 92.1702 304.51 92.1702H188.45C186.904 92.1702 185.421 92.7844 184.328 93.8777C183.234 94.9711 182.62 96.454 182.62 98.0002V99.6102L240.31 129.22C242.07 130.076 244.004 130.509 245.96 130.487C247.917 130.464 249.841 129.986 251.58 129.09Z" fill="white" stroke="#263238" stroke-width="2" stroke-linecap="round" stroke-linejoin="round"/>
<path d="M183.5 281.76C183.5 281.76 223 341.26 232.5 342.26C242 343.26 272 312.26 272 312.26L263.5 310.26L235.19 329.4C235.19 329.4 211 299.7 189.74 277L183.5 281.76Z" fill="white" stroke="#263238" stroke-width="2" stroke-linecap="round" stroke-linejoin="round"/>
<path d="M190.53 264C190.53 264 198.45 264.34 198.11 267.79C197.77 271.24 198.11 280.54 196.04 282.27C193.97 284 190.87 284.68 190.18 281.27C189.49 277.86 190.53 264 190.53 264Z" fill="white" stroke="#263238" stroke-width="2" stroke-linecap="round" stroke-linejoin="round"/>
<path d="M188.46 280.23C188.46 280.23 188.11 290.57 187.46 291.6C186.81 292.63 181.94 296.43 178.84 295.74C175.74 295.05 176.77 291.95 176.77 290.23V263H188.49L188.46 280.23Z" fill="#263238" stroke="#263238" stroke-linecap="round" stroke-linejoin="round"/>
<path d="M172.26 284C172.26 284 169.85 288.48 171.91 291.93C173.97 295.38 179.84 295.38 182.26 293.65C184.68 291.92 182.94 289.52 180.88 288.83C178.82 288.14 176.05 286.41 176.05 284.35C176.05 282.29 173.29 282.64 172.26 284Z" fill="white" stroke="#263238" stroke-width="2" stroke-linecap="round" stroke-linejoin="round"/>
<path d="M170.39 277.46C170.39 279.82 170.79 283.78 172.65 285.46C174.75 287.31 184.41 287.46 188.65 284.63C192.89 281.8 190.07 276.93 186.86 277.24C184.2 277.5 181.35 276.85 178.65 276.51C177.13 276.32 171.77 275.13 170.72 276.24C170.481 276.588 170.378 277.011 170.43 277.43L170.39 277.46Z" fill="white" stroke="#263238" stroke-width="2" stroke-linecap="round" stroke-linejoin="round"/>
<path d="M169.2 268.92C168.87 271.3 168.72 275.32 170.67 277.06C172.88 279.06 184.33 279.62 189.74 276.98C195.15 274.34 192.58 269.27 188.74 269.44C185.55 269.57 182.26 268.77 179.12 268.3C177.35 268.04 171.12 266.59 169.75 267.66C169.428 267.974 169.238 268.4 169.22 268.85L169.2 268.92Z" fill="white" stroke="#263238" stroke-width="2" stroke-linecap="round" stroke-linejoin="round"/>
<path d="M169.87 257.14C169.02 259.39 167.98 263.28 169.5 265.41C171.23 267.82 182.26 270.92 188.11 269.54C193.96 268.16 192.6 262.65 188.8 261.96C185.66 261.39 182.63 259.88 179.67 258.73C178 258.08 172.29 255.3 170.67 256.03C170.297 256.255 170.022 256.612 169.9 257.03L169.87 257.14Z" fill="white" stroke="#263238" stroke-width="2" stroke-linecap="round" stroke-linejoin="round"/>
<path d="M261.57 429.96L293.07 312.2H303.73L270.29 430.93" fill="#263238"/>
<path d="M261.57 429.96L293.07 312.2H303.73L270.29 430.93" stroke="#263238" stroke-linecap="round" stroke-linejoin="round"/>
<path d="M282.43 418.7L312.94 311.72L303.73 312.2L270.29 430.93" fill="white"/>
<path d="M282.43 418.7L312.94 311.72L303.73 312.2L270.29 430.93" stroke="#263238" stroke-width="2" stroke-linecap="round" stroke-linejoin="round"/>
<path d="M279.5 428.99L280.91 424.05" stroke="#263238" stroke-width="2" stroke-linecap="round" stroke-linejoin="round"/>
<path d="M240.5 339.86C240.5 339.86 243.95 345.03 248.09 345.72C252.23 346.41 296 311.94 296 311.94L278.07 314L240.5 339.86Z" fill="white" stroke="#263238" stroke-width="2" stroke-linecap="round" stroke-linejoin="round"/>
<path d="M212.71 284.58C212.71 284.58 220.95 216.25 239.37 192.5C259.5 166.5 299.95 187.66 291.71 229.33C285.39 261.33 266.99 318.5 266.99 318.5L212.71 284.58Z" fill="#FF6B00" stroke="#263238" stroke-width="2" stroke-linecap="round" stroke-linejoin="round"/>
<path d="M271.84 183.78L379.52 217.78C383.045 218.875 386.269 220.772 388.94 223.32C395.73 229.86 405.86 243.93 397.35 264.68C390.46 281.006 381.149 296.2 369.73 309.75L267 318.5L287.84 238.05C287.84 238.05 297.52 202.68 271.84 183.78Z" fill="white"/>
<mask id="mask0_125_2312" style="mask-type:luminance" maskUnits="userSpaceOnUse" x="267" y="183" width="134" height="136">
<path d="M271.84 183.78L379.52 217.78C383.045 218.875 386.269 220.772 388.94 223.32C395.73 229.86 405.86 243.93 397.35 264.68C390.46 281.006 381.149 296.2 369.73 309.75L267 318.5L287.84 238.05C287.84 238.05 297.52 202.68 271.84 183.78Z" fill="white"/>
</mask>
<g mask="url(#mask0_125_2312)">
<path d="M322.33 278.43C296.43 290.57 282.58 288.43 275.69 284.93L267 318.5L369.74 309.78C381.158 296.23 390.47 281.036 397.36 264.71C398.479 262.007 399.33 259.2 399.9 256.33C374.93 250.45 355.13 263.06 322.33 278.43Z" fill="#426C81"/>
<path opacity="0.5" d="M322.33 278.43C296.43 290.57 282.58 288.43 275.69 284.93L267 318.5L369.74 309.78C381.158 296.23 390.47 281.036 397.36 264.71C398.479 262.007 399.33 259.2 399.9 256.33C374.93 250.45 355.13 263.06 322.33 278.43Z" fill="white"/>
</g>
<path d="M271.84 183.78L379.52 217.78C383.045 218.875 386.269 220.772 388.94 223.32C395.73 229.86 405.86 243.93 397.35 264.68C390.46 281.006 381.149 296.2 369.73 309.75L267 318.5L287.84 238.05C287.84 238.05 297.52 202.68 271.84 183.78Z" stroke="#263238" stroke-width="2" stroke-linecap="round" stroke-linejoin="round"/>
<path d="M332.36 193.92L315.5 246.54C312.63 247.01 309.83 249.38 308.44 252.87C306.52 257.69 308.01 262.82 311.77 264.32C315.53 265.82 320.14 263.12 322.06 258.32C323.64 254.32 322.91 250.18 320.5 247.99L332.36 207.47L348.9 213.11L353.42 201.46L332.36 193.92Z" fill="#263238" stroke="#263238" stroke-linecap="round" stroke-linejoin="round"/>
<path d="M229.33 240.54C229.33 240.54 236.85 248.82 237.23 252.95C237.61 257.08 230.84 267.95 230.84 267.95C230.84 267.95 244.75 276.6 257.91 270.58C271.07 264.56 277.46 239 277.46 239C277.46 239 261.67 246.52 255.65 246.52C249.63 246.52 229.33 240.54 229.33 240.54Z" fill="#263238" stroke="#263238" stroke-linecap="round" stroke-linejoin="round"/>
<path d="M257.91 270.62C261.54 268.96 264.65 265.81 267.26 262.13C267.074 261.336 266.659 260.613 266.068 260.052C265.476 259.49 264.733 259.114 263.93 258.97C256.03 257.46 247.76 266.11 247.76 266.11C247.019 268.24 246.568 270.46 246.42 272.71C250.363 272.952 254.305 272.234 257.91 270.62Z" fill="#426C81" stroke="#263238" stroke-linecap="round" stroke-linejoin="round"/>
<path d="M247 263.86C242.763 263.697 238.621 262.553 234.9 260.52C233.07 264.38 230.83 267.99 230.83 267.99C230.83 267.99 244.74 276.64 257.9 270.62C261.451 268.803 264.491 266.125 266.74 262.83C263.66 263.17 253.62 264.17 247 263.86Z" fill="white" stroke="#263238" stroke-linecap="round" stroke-linejoin="round"/>
<path d="M255.65 246.56C249.65 246.56 229.33 240.56 229.33 240.56C231.79 243.29 233.987 246.246 235.89 249.39C240.89 251.39 249.68 254.48 256.78 254.48C262.888 254.423 268.856 252.645 274 249.35C275.366 245.975 276.521 242.518 277.46 239C277.46 239 261.67 246.56 255.65 246.56Z" fill="white" stroke="#263238" stroke-linecap="round" stroke-linejoin="round"/>
<path d="M254.15 229.26C254.15 229.26 256.41 221.37 262.8 220.61C269.19 219.85 271.07 224.37 271.07 224.37C271.07 224.37 259 224.37 254.15 229.26Z" fill="#263238"/>
<path d="M272.57 236.78L281.97 240.17" stroke="#263238" stroke-linecap="round" stroke-linejoin="round"/>
<path d="M243.59 221.7C243.12 224.35 241.91 226.36 240.88 226.18C239.85 226 239.42 223.7 239.88 221.04C240.34 218.38 241.57 216.37 242.59 216.55C243.61 216.73 244.07 219 243.59 221.7Z" fill="#263238"/>
<path d="M255.65 219.86C255.65 219.86 255.28 215.35 265.05 215.35C274.82 215.35 276.71 214.22 272.95 209.35C269.19 204.48 253.4 207.08 255.65 219.86Z" fill="#263238"/>
<path d="M251.89 206.33C251.89 206.33 251.14 199.93 245.13 199.93C239.12 199.93 235.72 207.08 235.35 204.82C234.98 202.56 237.23 194.67 245.5 193.92C253.77 193.17 251.89 206.33 251.89 206.33Z" fill="#263238"/>
<path d="M294.32 201.11C295.933 205.159 296.911 209.433 297.22 213.78C299.62 241.21 275.22 315.98 275.22 315.98" stroke="#263238" stroke-linecap="round" stroke-linejoin="round"/>
<path d="M284.87 190.11C287.044 191.104 288.943 192.614 290.4 194.51" stroke="#263238" stroke-linecap="round" stroke-linejoin="round"/>
<path d="M369.82 302.8C367.44 306.38 365.82 308.8 365.82 308.8" stroke="#263238" stroke-linecap="round" stroke-linejoin="round"/>
<path d="M373.7 217.21C373.7 217.21 391.88 227.5 394.28 242.59C396.68 257.68 390.85 265.59 387.42 273.8C385.42 278.51 378.65 289.3 373.2 297.66" stroke="#263238" stroke-linecap="round" stroke-linejoin="round"/>
<path d="M231.76 275.66C231.76 275.66 237.2 281.09 249.42 279.73C249.42 279.73 237.2 285.16 231.76 275.66Z" fill="#263238"/>
<path d="M121.94 271.27C121.94 271.27 153.77 254.58 211.87 264.81C214.541 265.278 217.29 264.669 219.513 263.115C221.736 261.561 223.252 259.19 223.73 256.52L224.57 251.83C224.974 249.579 224.613 247.258 223.546 245.236C222.479 243.214 220.766 241.607 218.68 240.67C203.25 233.74 167.35 214.52 148.48 178.9L121.94 271.27Z" fill="#426C81" stroke="#263238" stroke-width="2" stroke-linecap="round" stroke-linejoin="round"/>
<path d="M150.37 198.24C150.37 198.24 165.91 222.62 191.71 231.45" stroke="white" stroke-width="2" stroke-linecap="round" stroke-linejoin="round"/>
<path d="M218.68 240.67C209.653 236.586 200.985 231.749 192.77 226.21C195.48 234.87 196.26 247.96 185.05 261.75C194.045 262.21 203.003 263.232 211.87 264.81C214.541 265.278 217.29 264.669 219.513 263.115C221.736 261.561 223.252 259.19 223.73 256.52L224.57 251.83C224.974 249.579 224.613 247.258 223.546 245.236C222.479 243.214 220.766 241.607 218.68 240.67Z" fill="#263238" stroke="#263238" stroke-linecap="round" stroke-linejoin="round"/>
<path d="M147.438 228.966C156.501 199.974 154.789 173.639 143.614 170.146C132.439 166.652 116.033 187.323 106.969 216.315C97.9061 245.307 99.618 271.642 110.793 275.135C121.968 278.629 138.375 257.958 147.438 228.966Z" fill="#263238" stroke="#263238" stroke-linecap="round" stroke-linejoin="round"/>
<path d="M142.922 227.56C151.076 201.477 150.092 177.96 140.725 175.031C131.358 172.103 117.155 190.873 109.001 216.956C100.847 243.038 101.831 266.555 111.198 269.484C120.565 272.412 134.768 253.642 142.922 227.56Z" fill="white" stroke="#263238" stroke-linecap="round" stroke-linejoin="round"/>
<path d="M146.69 212.63L137.39 212.14L130.39 235.96L137.78 241.29C139.736 236.817 141.445 232.24 142.9 227.58C144.448 222.673 145.714 217.682 146.69 212.63Z" fill="#263238" stroke="#263238" stroke-linecap="round" stroke-linejoin="round"/>
<path d="M137.92 225.22C136 231.8 132.65 236.61 130.43 235.96C128.21 235.31 127.98 229.46 129.9 222.88C131.82 216.3 135.18 211.49 137.39 212.14C139.6 212.79 139.84 218.65 137.92 225.22Z" fill="white" stroke="#263238" stroke-linecap="round" stroke-linejoin="round"/>
<path d="M244.3 344.34C239.13 341.93 196.73 266.44 194.3 262.34C191.87 258.24 192.58 252.34 194.99 246.83C197.4 241.32 197.4 230.97 195.99 228.9C194.58 226.83 190.36 224.72 190.36 224.72C190.36 224.72 191.17 223.72 192.89 221.67C194.61 219.62 198.75 220.98 198.75 220.98C201.85 218.56 204.62 222.5 204.62 222.5C208.07 220.43 209.78 224.42 209.78 224.42C210.991 224.487 212.171 224.829 213.23 225.42C216.1 227.28 215.64 235.42 215.64 235.42C215.64 235.42 218.74 236.11 219.43 238.18C220.203 241.507 219.962 244.99 218.74 248.18C217.36 251.63 208.74 261.97 208.74 261.97L251.48 335.39" fill="white"/>
<path d="M244.3 344.34C239.13 341.93 196.73 266.44 194.3 262.34C191.87 258.24 192.58 252.34 194.99 246.83C197.4 241.32 197.4 230.97 195.99 228.9C194.58 226.83 190.36 224.72 190.36 224.72C190.36 224.72 191.17 223.72 192.89 221.67C194.61 219.62 198.75 220.98 198.75 220.98C201.85 218.56 204.62 222.5 204.62 222.5C208.07 220.43 209.78 224.42 209.78 224.42C210.991 224.487 212.171 224.829 213.23 225.42C216.1 227.28 215.64 235.42 215.64 235.42C215.64 235.42 218.74 236.11 219.43 238.18C220.203 241.507 219.962 244.99 218.74 248.18C217.36 251.63 208.74 261.97 208.74 261.97L251.48 335.39" stroke="#263238" stroke-width="2" stroke-linecap="round" stroke-linejoin="round"/>
<path d="M198.8 221C198.8 221 203.75 224.19 203.75 227C203.803 229.169 203.987 231.333 204.3 233.48" stroke="#263238" stroke-linecap="round" stroke-linejoin="round"/>
<path d="M204.67 222.47C204.67 222.47 207.67 225.62 207.82 227.47C207.97 229.32 208.38 235.06 208.38 235.06" stroke="#263238" stroke-linecap="round" stroke-linejoin="round"/>
<path d="M209.83 224.39C210.859 225.906 211.445 227.679 211.52 229.51C211.54 231.428 211.664 233.345 211.89 235.25" stroke="#263238" stroke-linecap="round" stroke-linejoin="round"/>
<path d="M215.69 235.42C215.69 235.42 217.08 244.32 216.52 246.18" stroke="#263238" stroke-linecap="round" stroke-linejoin="round"/>
</svg>
