<svg width="166" height="50" viewBox="0 0 166 50" fill="none" xmlns="http://www.w3.org/2000/svg">
<path d="M156.395 30.7768L152.12 38.0316L150.245 37.3858L137.161 46.7566L134.089 39.7254C134.089 39.7254 141.651 36.9921 143.175 34.4506C144.699 31.9091 143.459 31.8794 143.459 31.8794L146.86 27.4809L156.395 30.7768Z" fill="#1B3A49"/>
<path d="M152.465 20.3336C152.465 20.3336 148.712 18.9101 142.907 14.1168C139.596 11.3181 136.617 8.14804 134.03 4.66903C133.703 4.22482 133.217 3.92474 132.674 3.83209C132.131 3.73945 131.573 3.86149 131.118 4.17247C129.677 5.18789 127.589 7.86611 124.979 14.884C120.381 27.2635 122.757 29.8777 123.848 29.7712C124.939 29.6646 132.217 27.9248 136.896 28.102C141.575 28.2792 148.575 30.224 148.575 30.224L152.465 20.3336Z" fill="#E0E0E0"/>
<path d="M152.465 20.3336C152.465 20.3336 152.458 20.3882 152.408 20.4978L152.222 20.9786C152.05 21.4309 151.806 22.0808 151.489 22.903C150.824 24.6141 149.864 27.0997 148.656 30.2247L148.647 30.2943L148.572 30.2843C146.58 29.7592 144.297 29.2055 141.757 28.7688C140.487 28.548 139.153 28.349 137.783 28.236C136.339 28.1446 134.89 28.177 133.451 28.333C130.467 28.6054 127.347 29.244 124.059 29.8551L123.9 29.8742L123.716 29.8495C123.599 29.8292 123.484 29.7935 123.376 29.7433C123.279 29.6747 123.182 29.611 123.095 29.5388L122.871 29.2862C122.625 28.9187 122.452 28.5076 122.361 28.075C122.181 27.2225 122.128 26.348 122.203 25.48C122.341 23.7168 122.653 21.9716 123.134 20.2699L123.455 19.1245C123.561 18.7444 123.687 18.3719 123.803 17.998C124.035 17.2454 124.291 16.511 124.555 15.7828C125.058 14.3332 125.625 12.8923 126.212 11.5298C126.789 10.1752 127.447 8.85677 128.183 7.58167C128.867 6.33241 129.756 5.20715 130.814 4.25303C131.081 4.0145 131.396 3.83606 131.738 3.72973C132.082 3.6276 132.445 3.61373 132.796 3.68942C133.144 3.75652 133.47 3.90611 133.749 4.12563C134.006 4.34447 134.231 4.59942 134.416 4.88256C135.197 5.91778 135.996 6.89969 136.788 7.81999C138.261 9.53805 139.836 11.166 141.505 12.6949C143.938 14.8895 146.562 16.8626 149.346 18.5906C150.337 19.1937 151.135 19.6192 151.697 19.917L152.323 20.2235L152.537 20.323C152.459 20.3077 152.382 20.2822 152.31 20.247C152.166 20.1873 151.951 20.0977 151.675 19.9647C151.118 19.708 150.316 19.2768 149.315 18.7078C146.474 17.0116 143.8 15.0513 141.327 12.8531C139.645 11.3298 138.057 9.70521 136.573 7.98841C135.772 7.06181 134.968 6.07924 134.182 5.04335C134.009 4.78529 133.802 4.55174 133.567 4.34905C133.316 4.15515 133.025 4.02095 132.714 3.95664C132.397 3.89673 132.069 3.91302 131.759 4.00417C131.449 4.09532 131.165 4.25872 130.93 4.48097C129.9 5.41997 129.034 6.52415 128.368 7.74806C127.639 9.01561 126.989 10.3267 126.421 11.674C125.828 13.0408 125.269 14.4576 124.765 15.9122C124.506 16.6409 124.253 17.3605 124.024 18.1187C123.909 18.4926 123.783 18.8651 123.672 19.2396C123.561 19.6141 123.464 20.0005 123.357 20.3807C122.879 22.0642 122.569 23.7912 122.433 25.5361C122.359 26.3896 122.415 27.2494 122.597 28.0864C122.679 28.4838 122.836 28.8619 123.06 29.2002L123.253 29.4183C123.326 29.4786 123.405 29.5297 123.478 29.5851C123.643 29.668 123.83 29.6931 124.01 29.6563C127.268 29.0817 130.421 28.4173 133.42 28.1518C134.872 27.9999 136.334 27.9725 137.79 28.0701C139.191 28.1821 140.529 28.3867 141.804 28.6082C144.346 29.0704 146.628 29.6241 148.629 30.1654L148.526 30.2173C149.764 27.1268 150.746 24.6694 151.423 22.9751C151.763 22.1358 152.022 21.4878 152.186 21.0547L152.395 20.5518C152.411 20.4768 152.435 20.4037 152.465 20.3336Z" fill="#263238"/>
<path d="M161.635 31.8636L159.168 31.2852L160.866 28.1298L162.874 29.4053L161.635 31.8636Z" fill="#FF6600"/>
<path d="M161.225 27.824L159.884 30.2838L159.164 31.6233C158.687 32.5097 157.889 33.1794 156.933 33.4944C155.977 33.8094 154.937 33.7457 154.027 33.3164L144.111 29.7622L149.247 17.4042L159.208 21.9759C160.221 22.5153 160.992 23.4182 161.367 24.5032C161.741 25.5882 161.691 26.7747 161.225 27.824Z" fill="#FF6600"/>
<g opacity="0.3">
<path d="M125.764 15.6313C123.361 22.237 122.586 28.0192 124.077 28.5528C125.568 29.0864 128.71 24.1727 131.112 17.572C133.513 10.9713 134.289 5.18418 132.793 4.64988C131.297 4.11559 128.166 9.03064 125.764 15.6313Z" fill="black"/>
</g>
<path d="M132.367 13.6747C132.367 13.6747 128.869 11.8556 127.381 16.5055C125.893 21.1555 129.464 21.6343 129.464 21.6343C130.801 19.1304 131.778 16.4509 132.367 13.6747Z" fill="white"/>
<path d="M150.899 22.5055C152.117 23.1642 153.375 23.7466 154.666 24.2493C155.925 24.824 157.217 25.3248 158.535 25.7491C157.315 25.0963 156.057 24.5173 154.768 24.0152C153.509 23.4372 152.217 22.9331 150.899 22.5055Z" fill="#263238"/>
<path d="M150.338 23.8664C151.559 24.5216 152.818 25.1008 154.11 25.6009C155.37 26.1762 156.662 26.677 157.98 27.1007C156.758 26.449 155.498 25.8698 154.208 25.3662C152.948 24.7909 151.656 24.2901 150.338 23.8664Z" fill="#263238"/>
<path d="M149.776 25.2271C150.997 25.8814 152.257 26.4607 153.549 26.9616C154.808 27.5369 156.1 28.0377 157.418 28.4614C156.197 27.8093 154.937 27.2317 153.645 26.7319C152.387 26.1537 151.095 25.6512 149.776 25.2271Z" fill="#263238"/>
<path d="M149.215 26.5879C150.436 27.2422 151.695 27.8214 152.987 28.3224C154.247 28.8971 155.539 29.3979 156.857 29.8222C155.635 29.1701 154.375 28.5925 153.084 28.0926C151.825 27.5139 150.533 27.0114 149.215 26.5879Z" fill="#263238"/>
<path d="M122.696 16.9034C122.679 16.9686 120.326 17.0609 117.406 17.0975C114.487 17.1342 112.113 17.1009 112.113 17.0311C112.114 16.9613 114.481 16.8717 117.402 16.8416C120.323 16.8115 122.692 16.8364 122.696 16.9034Z" fill="#263238"/>
<path d="M122.85 13.7187C122.844 13.7932 119.339 12.6362 115.032 11.1416C110.725 9.6469 107.236 8.38198 107.243 8.31243C107.249 8.24289 110.754 9.39489 115.064 10.8902C119.375 12.3855 122.863 13.6505 122.85 13.7187Z" fill="#263238"/>
<path d="M124.574 9.80497C124.557 9.8624 122.864 8.54299 120.827 6.89631C118.79 5.24962 117.133 3.84 117.143 3.78351C117.153 3.72702 118.847 5.02131 120.889 6.68734C122.93 8.35337 124.59 9.74754 124.574 9.80497Z" fill="#263238"/>
<path d="M133.421 5.4369C133.435 5.51758 133.439 5.59964 133.434 5.68134C133.432 5.8784 133.432 6.1109 133.429 6.39374C133.427 6.67658 133.418 7.07997 133.385 7.51547C133.352 7.95097 133.331 8.44875 133.26 9.01571C133.125 10.2997 132.922 11.5756 132.651 12.838C132.311 14.3837 131.88 15.9081 131.361 17.4033C130.83 18.8931 130.211 20.3501 129.507 21.7665C128.926 22.9206 128.285 24.0431 127.585 25.1294C127.295 25.5962 126.998 26.0013 126.752 26.3628C126.506 26.7243 126.274 27.0219 126.082 27.2844L125.639 27.8418C125.536 27.9646 125.482 28.0282 125.473 28.0219C125.505 27.945 125.547 27.8725 125.598 27.806C125.71 27.6491 125.841 27.4594 126 27.2227C126.158 26.9861 126.392 26.6686 126.63 26.2958C126.867 25.9231 127.148 25.5209 127.424 25.0471C128.009 24.1142 128.642 22.9754 129.287 21.6762C129.976 20.2623 130.586 18.8112 131.113 17.3296C131.628 15.8447 132.062 14.333 132.413 12.801C132.724 11.3864 132.942 10.1008 133.073 9.01094C133.146 8.46451 133.187 7.9694 133.238 7.51603C133.289 7.06266 133.311 6.7116 133.326 6.40526C133.342 6.09891 133.363 5.90451 133.381 5.69951C133.38 5.61043 133.394 5.52185 133.421 5.4369Z" fill="#263238"/>
<path d="M0.856 37L5.848 25.8H8.408L13.416 37H10.696L6.6 27.112H7.624L3.512 37H0.856ZM3.352 34.6L4.04 32.632H9.8L10.504 34.6H3.352ZM20.9498 37.192C20.0644 37.192 19.2484 37.0533 18.5017 36.776C17.7658 36.488 17.1204 36.0827 16.5657 35.56C16.0217 35.0373 15.5951 34.424 15.2857 33.72C14.9871 33.016 14.8377 32.2427 14.8377 31.4C14.8377 30.5573 14.9871 29.784 15.2857 29.08C15.5951 28.376 16.0271 27.7627 16.5817 27.24C17.1364 26.7173 17.7871 26.3173 18.5338 26.04C19.2804 25.752 20.1018 25.608 20.9978 25.608C21.9898 25.608 22.8804 25.7733 23.6698 26.104C24.4698 26.4347 25.1418 26.9147 25.6858 27.544L24.0218 29.08C23.6164 28.6533 23.1738 28.3387 22.6938 28.136C22.2138 27.9227 21.6911 27.816 21.1258 27.816C20.5818 27.816 20.0858 27.9013 19.6378 28.072C19.1898 28.2427 18.8004 28.488 18.4697 28.808C18.1498 29.128 17.8991 29.5067 17.7178 29.944C17.5471 30.3813 17.4618 30.8667 17.4618 31.4C17.4618 31.9227 17.5471 32.4027 17.7178 32.84C17.8991 33.2773 18.1498 33.6613 18.4697 33.992C18.8004 34.312 19.1844 34.5573 19.6218 34.728C20.0698 34.8987 20.5604 34.984 21.0938 34.984C21.6058 34.984 22.1018 34.904 22.5817 34.744C23.0724 34.5733 23.5471 34.2907 24.0058 33.896L25.4778 35.768C24.8698 36.2267 24.1604 36.5787 23.3498 36.824C22.5498 37.0693 21.7498 37.192 20.9498 37.192ZM23.1098 35.432V31.224H25.4778V35.768L23.1098 35.432ZM29.0055 37V25.8H31.5975V37H29.0055ZM37.6955 37V27.912H34.1115V25.8H43.8715V27.912H40.2875V37H37.6955ZM44.3516 37L49.3436 25.8H51.9036L56.9116 37H54.1916L50.0956 27.112H51.1196L47.0076 37H44.3516ZM46.8476 34.6L47.5356 32.632H53.2956L53.9996 34.6H46.8476ZM60.9511 37V27.912H57.3671V25.8H67.1271V27.912H63.5431V37H60.9511ZM69.6418 37V25.8H72.2338V37H69.6418ZM81.4517 37.192C80.5664 37.192 79.7451 37.048 78.9877 36.76C78.2411 36.472 77.5904 36.0667 77.0357 35.544C76.4917 35.0213 76.0651 34.408 75.7557 33.704C75.4571 33 75.3077 32.232 75.3077 31.4C75.3077 30.568 75.4571 29.8 75.7557 29.096C76.0651 28.392 76.4971 27.7787 77.0517 27.256C77.6064 26.7333 78.2571 26.328 79.0037 26.04C79.7504 25.752 80.5611 25.608 81.4357 25.608C82.3211 25.608 83.1317 25.752 83.8677 26.04C84.6144 26.328 85.2597 26.7333 85.8037 27.256C86.3584 27.7787 86.7904 28.392 87.0997 29.096C87.4091 29.7893 87.5637 30.5573 87.5637 31.4C87.5637 32.232 87.4091 33.0053 87.0997 33.72C86.7904 34.424 86.3584 35.0373 85.8037 35.56C85.2597 36.072 84.6144 36.472 83.8677 36.76C83.1317 37.048 82.3264 37.192 81.4517 37.192ZM81.4357 34.984C81.9371 34.984 82.3957 34.8987 82.8117 34.728C83.2384 34.5573 83.6117 34.312 83.9317 33.992C84.2517 33.672 84.4971 33.2933 84.6677 32.856C84.8491 32.4187 84.9397 31.9333 84.9397 31.4C84.9397 30.8667 84.8491 30.3813 84.6677 29.944C84.4971 29.5067 84.2517 29.128 83.9317 28.808C83.6224 28.488 83.2544 28.2427 82.8277 28.072C82.4011 27.9013 81.9371 27.816 81.4357 27.816C80.9344 27.816 80.4704 27.9013 80.0437 28.072C79.6277 28.2427 79.2597 28.488 78.9397 28.808C78.6197 29.128 78.3691 29.5067 78.1877 29.944C78.0171 30.3813 77.9317 30.8667 77.9317 31.4C77.9317 31.9227 78.0171 32.408 78.1877 32.856C78.3691 33.2933 78.6144 33.672 78.9237 33.992C79.2437 34.312 79.6171 34.5573 80.0437 34.728C80.4704 34.8987 80.9344 34.984 81.4357 34.984ZM90.6317 37V25.8H92.7757L99.3837 33.864H98.3437V25.8H100.904V37H98.7757L92.1517 28.936H93.1917V37H90.6317Z" fill="#426C81"/>
<path d="M6.922 21.994C6.14733 21.994 5.42867 21.868 4.766 21.616C4.11267 21.364 3.54333 21.0093 3.058 20.552C2.582 20.0947 2.20867 19.558 1.938 18.942C1.67667 18.326 1.546 17.654 1.546 16.926C1.546 16.198 1.67667 15.526 1.938 14.91C2.20867 14.294 2.58667 13.7573 3.072 13.3C3.55733 12.8427 4.12667 12.488 4.78 12.236C5.43333 11.984 6.14267 11.858 6.908 11.858C7.68267 11.858 8.392 11.984 9.036 12.236C9.68933 12.488 10.254 12.8427 10.73 13.3C11.2153 13.7573 11.5933 14.294 11.864 14.91C12.1347 15.5167 12.27 16.1887 12.27 16.926C12.27 17.654 12.1347 18.3307 11.864 18.956C11.5933 19.572 11.2153 20.1087 10.73 20.566C10.254 21.014 9.68933 21.364 9.036 21.616C8.392 21.868 7.68733 21.994 6.922 21.994ZM6.908 20.062C7.34667 20.062 7.748 19.9873 8.112 19.838C8.48533 19.6887 8.812 19.474 9.092 19.194C9.372 18.914 9.58667 18.5827 9.736 18.2C9.89467 17.8173 9.974 17.3927 9.974 16.926C9.974 16.4593 9.89467 16.0347 9.736 15.652C9.58667 15.2693 9.372 14.938 9.092 14.658C8.82133 14.378 8.49933 14.1633 8.126 14.014C7.75267 13.8647 7.34667 13.79 6.908 13.79C6.46933 13.79 6.06333 13.8647 5.69 14.014C5.326 14.1633 5.004 14.378 4.724 14.658C4.444 14.938 4.22467 15.2693 4.066 15.652C3.91667 16.0347 3.842 16.4593 3.842 16.926C3.842 17.3833 3.91667 17.808 4.066 18.2C4.22467 18.5827 4.43933 18.914 4.71 19.194C4.99 19.474 5.31667 19.6887 5.69 19.838C6.06333 19.9873 6.46933 20.062 6.908 20.062ZM13.9745 21.826V12.026H18.2165C19.0938 12.026 19.8498 12.1707 20.4845 12.46C21.1192 12.74 21.6092 13.146 21.9545 13.678C22.2998 14.21 22.4725 14.8447 22.4725 15.582C22.4725 16.31 22.2998 16.94 21.9545 17.472C21.6092 17.9947 21.1192 18.396 20.4845 18.676C19.8498 18.956 19.0938 19.096 18.2165 19.096H15.2345L16.2425 18.102V21.826H13.9745ZM20.2045 21.826L17.7545 18.27H20.1765L22.6545 21.826H20.2045ZM16.2425 18.354L15.2345 17.29H18.0905C18.7905 17.29 19.3132 17.1407 19.6585 16.842C20.0038 16.534 20.1765 16.114 20.1765 15.582C20.1765 15.0407 20.0038 14.6207 19.6585 14.322C19.3132 14.0233 18.7905 13.874 18.0905 13.874H15.2345L16.2425 12.796V18.354ZM23.6394 21.826V20.356L29.7014 13.048L29.9814 13.874H23.7514V12.026H31.9974V13.496L25.9494 20.804L25.6694 19.978H32.2074V21.826H23.6394ZM38.016 21.994C36.6253 21.994 35.538 21.6067 34.754 20.832C33.97 20.0573 33.578 18.9513 33.578 17.514V12.026H35.846V17.43C35.846 18.3633 36.0373 19.0353 36.42 19.446C36.8027 19.8567 37.3393 20.062 38.03 20.062C38.7207 20.062 39.2573 19.8567 39.64 19.446C40.0227 19.0353 40.214 18.3633 40.214 17.43V12.026H42.454V17.514C42.454 18.9513 42.062 20.0573 41.278 20.832C40.494 21.6067 39.4067 21.994 38.016 21.994ZM53.392 21.994C52.6174 21.994 51.9034 21.8727 51.25 21.63C50.606 21.378 50.0414 21.0233 49.556 20.566C49.08 20.1087 48.7067 19.572 48.436 18.956C48.1747 18.34 48.044 17.6633 48.044 16.926C48.044 16.1887 48.1747 15.512 48.436 14.896C48.7067 14.28 49.0847 13.7433 49.57 13.286C50.0554 12.8287 50.6247 12.4787 51.278 12.236C51.9314 11.984 52.65 11.858 53.434 11.858C54.302 11.858 55.0814 12.0027 55.772 12.292C56.472 12.5813 57.06 13.0013 57.536 13.552L56.08 14.896C55.7254 14.5227 55.338 14.2473 54.918 14.07C54.498 13.8833 54.0407 13.79 53.546 13.79C53.07 13.79 52.636 13.8647 52.244 14.014C51.852 14.1633 51.5114 14.378 51.222 14.658C50.942 14.938 50.7227 15.2693 50.564 15.652C50.4147 16.0347 50.34 16.4593 50.34 16.926C50.34 17.3833 50.4147 17.8033 50.564 18.186C50.7227 18.5687 50.942 18.9047 51.222 19.194C51.5114 19.474 51.8474 19.6887 52.23 19.838C52.622 19.9873 53.0514 20.062 53.518 20.062C53.966 20.062 54.4 19.992 54.82 19.852C55.2494 19.7027 55.6647 19.4553 56.066 19.11L57.354 20.748C56.822 21.1493 56.2014 21.4573 55.492 21.672C54.792 21.8867 54.092 21.994 53.392 21.994ZM55.282 20.454V16.772H57.354V20.748L55.282 20.454ZM59.4608 21.826V12.026H63.7028C64.5802 12.026 65.3362 12.1707 65.9708 12.46C66.6055 12.74 67.0955 13.146 67.4408 13.678C67.7862 14.21 67.9588 14.8447 67.9588 15.582C67.9588 16.31 67.7862 16.94 67.4408 17.472C67.0955 17.9947 66.6055 18.396 65.9708 18.676C65.3362 18.956 64.5802 19.096 63.7028 19.096H60.7208L61.7288 18.102V21.826H59.4608ZM65.6908 21.826L63.2408 18.27H65.6628L68.1408 21.826H65.6908ZM61.7288 18.354L60.7208 17.29H63.5768C64.2768 17.29 64.7995 17.1407 65.1448 16.842C65.4902 16.534 65.6628 16.114 65.6628 15.582C65.6628 15.0407 65.4902 14.6207 65.1448 14.322C64.7995 14.0233 64.2768 13.874 63.5768 13.874H60.7208L61.7288 12.796V18.354ZM68.4677 21.826L72.8358 12.026H75.0758L79.4578 21.826H77.0778L73.4938 13.174H74.3898L70.7918 21.826H68.4677ZM70.6517 19.726L71.2538 18.004H76.2938L76.9098 19.726H70.6517ZM80.4745 21.826V12.026H82.3505L88.1325 19.082H87.2225V12.026H89.4625V21.826H87.6005L81.8045 14.77H82.7145V21.826H80.4745ZM91.7811 21.826V12.026H96.2331C97.2971 12.026 98.2351 12.2313 99.0471 12.642C99.8591 13.0433 100.494 13.608 100.951 14.336C101.408 15.064 101.637 15.9273 101.637 16.926C101.637 17.9153 101.408 18.7787 100.951 19.516C100.494 20.244 99.8591 20.8133 99.0471 21.224C98.2351 21.6253 97.2971 21.826 96.2331 21.826H91.7811ZM94.0491 19.964H96.1211C96.7745 19.964 97.3391 19.8427 97.8151 19.6C98.3005 19.348 98.6738 18.9933 98.9351 18.536C99.2058 18.0787 99.3411 17.542 99.3411 16.926C99.3411 16.3007 99.2058 15.764 98.9351 15.316C98.6738 14.8587 98.3005 14.5087 97.8151 14.266C97.3391 14.014 96.7745 13.888 96.1211 13.888H94.0491V19.964Z" fill="#426C81"/>
</svg>
